HIERARCHY
ROOT ui
{
	 OFFSET 0 0 0
	 CHANNELS 3 XPosition YPosition Z Position
	 EndSite
	 {
	 OFFSET 0 -1 0
	 }
}
ROOT li
{
	 OFFSET 0 0 0
	 CHANNELS 3 XPosition YPosition Z Position
	 EndSite
	 {
	 OFFSET 0 -1 0
	 }
}
ROOT ul
{
	 OFFSET 0 0 0
	 CHANNELS 3 XPosition YPosition Z Position
	 EndSite
	 {
	 OFFSET 0 -1 0
	 }
}
ROOT ll
{
	 OFFSET 0 0 0
	 CHANNELS 3 XPosition YPosition Z Position
	 EndSite
	 {
	 OFFSET 0 -1 0
	 }
}
ROOT tt
{
	 OFFSET 0 0 0
	 CHANNELS 3 XPosition YPosition Z Position
	 EndSite
	 {
	 OFFSET 0 -1 0
	 }
}
ROOT tb
{
	 OFFSET 0 0 0
	 CHANNELS 3 XPosition YPosition Z Position
	 EndSite
	 {
	 OFFSET 0 -1 0
	 }
}
ROOT td
{
	 OFFSET 0 0 0
	 CHANNELS 3 XPosition YPosition Z Position
	 EndSite
	 {
	 OFFSET 0 -1 0
	 }
}
ROOT v
{
	 OFFSET 0 0 0
	 CHANNELS 3 XPosition YPosition Z Position
	 EndSite
	 {
	 OFFSET 0 -1 0
	 }
}
ROOT bn
{
	 OFFSET 0 0 0
	 CHANNELS 3 XPosition YPosition Z Position
	 EndSite
	 {
	 OFFSET 0 -1 0
	 }
}
MOTION
Frames: 18
Frame Time: 0.002
2.388339936733246E-4	3.032119870185852E-4	0		0.5111574096679687	-2.366704833984375	0		-0.9307115478515625	0.009968219757080078	0		-0.7378408203125	-2.359396728515625	0		1.4310306396484376	-0.6371288452148437	0		3.37931005859375	-0.18741758728027344	0		4.7806650390625	-0.1644691162109375	0		5.62163427734375	0.08991397094726562	0		-0.16006793212890624	5.91052734375	0		
0.047977130889892576	-8.445420265197754E-4	0		0.5249752807617187	-2.361461669921875	0		-0.9409007568359375	0.015480877876281739	0		-0.7639287109375	-2.34570068359375	0		1.41592431640625	-0.62455078125	0		3.35119140625	-0.17568348693847657	0		4.78942919921875	-0.1631529541015625	0		5.60660546875	0.10950685882568359	0		-0.13224679565429687	5.918607421875	0		
0.03671356964111328	-0.0073237051963806156	0		0.5437180786132813	-2.36828271484375	0		-0.9491187744140624	0.01296363639831543	0		-0.72424462890625	-2.35776611328125	0		1.4026287841796874	-0.6340020751953125	0		3.336940185546875	-0.1811167755126953	0		4.78524609375	-0.16269607543945314	0		5.608123046875	0.08389962768554687	0		-0.1856314239501953	5.90360888671875	0		
0.032643150329589844	-0.006897741794586181	0		0.48369345092773436	-2.36421435546875	0		-0.9531892700195312	0.013386335372924805	0		-0.7663048095703126	-2.35690771484375	0		1.3985604248046875	-0.6335715942382812	0		3.34785791015625	-0.18185148620605468	0		4.7701884765625	-0.16112855529785156	0		5.60405224609375	0.08434403991699219	0		-0.15566641235351564	5.90864501953125	0		
0.028727689743041993	-0.006491392135620117	0		0.5108059692382813	-2.362161376953125	0		-0.9571047973632812	0.013789703369140625	0		-0.7582825927734375	-2.362640869140625	0		1.4026119384765625	-0.63625244140625	0		3.349862548828125	-0.1885032958984375	0		4.771169921875	-0.16976449584960937	0		5.60013671875	0.08476724243164062	0		-0.21259629821777343	5.9096572265625	0		
0.032079910278320314	8.109679818153381E-4	0		0.482143798828125	-2.35649169921875	0		-1.03278173828125	0.01899327278137207	0		-0.7599693603515625	-2.359282958984375	0		1.400034912109375	-0.6228781127929688	0		3.330388427734375	-0.16592979431152344	0		4.76661474609375	-0.1543582458496094	0		5.5915009765625	0.0932219467163086	0		-0.18228480529785157	5.91464990234375	0		
0.025531812667846678	-0.0017977800369262695	0		0.5325750732421874	-2.3617509765625	0		-0.966254638671875	0.022546499252319337	0		-0.77541943359375	-2.35379150390625	0		1.3934884033203125	-0.6254833984375	0		3.33670263671875	-0.18067808532714844	0		4.7700205078125	-0.1610691223144531	0		5.5871923828125	0.11160301971435548	0		-0.18581375122070312	5.91500634765625	0		
0.01820395278930664	-0.005423277854919434	0		0.47332525634765626	-2.358781005859375	0		-0.967628662109375	0.014850122451782227	0		-0.7427210083007812	-2.35587646484375	0		1.3841279296875	-0.6320823364257813	0		3.3374775390625	-0.1753871765136719	0		4.7557509765625	-0.159602783203125	0		5.579818359375	0.10399201202392579	0		-0.1550448913574219	5.9209453125	0		
0.015165082931518555	-0.0051244511604309085	0		0.520186767578125	-2.368052001953125	0		-0.9766215209960938	0.01921453857421875	0		-0.77586572265625	-2.365236083984375	0		1.3810908203125	-0.6317796630859375	0		3.33038232421875	-0.1800330810546875	0		4.75880322265625	-0.15135990905761718	0		5.58657275390625	0.08619314575195312	0		-0.19314366149902343	5.9176435546875	0		
0.012376678466796876	-0.004855719089508057	0		0.4405478515625	-2.35490234375	0		-1.049451171875	0.016280437469482423	0		-0.7766240844726563	-2.362992919921875	0		1.38916650390625	-0.6436316528320313	0		3.312606689453125	-0.17858274841308594	0		4.74383349609375	-0.16693832397460937	0		5.58886376953125	0.0934215087890625	0		-0.19497329711914063	5.915900390625	0		
0.01692120552062988	0.002303174018859863	0		0.4960172119140625	-2.35532421875	0		-0.9619691772460938	0.017487720489501955	0		-0.8120687866210937	-2.355379638671875	0		1.3957474365234375	-0.6334910278320313	0		3.338093505859375	-0.17665199279785157	0		4.7604345703125	-0.1549004364013672	0		5.590419921875	0.10163395690917969	0		-0.21449343872070312	5.9193330078125	0		
0.014638869285583497	0.002514486074447632	0		0.46474609375	-2.35477978515625	0		-0.9801820068359375	0.023877500534057617	0		-0.7454490966796875	-2.364959228515625	0		1.3826053466796875	-0.6211494140625	0		3.320064208984375	-0.15424624633789064	0		4.74917626953125	-0.1525677032470703	0		5.5840458984375	0.09391352081298829	0		-0.16576824951171876	5.9219609375	0		
0.009570743560791016	-2.6641398668289187E-4	0		0.5146395263671875	-2.362186279296875	0		-0.9822161865234375	0.024057607650756836	0		-0.7963778076171875	-2.356218994140625	0		1.3714605712890624	-0.6308551025390625	0		3.3207451171875	-0.17907908630371094	0		4.75406298828125	-0.15944084167480468	0		5.576931640625	0.08718119049072266	0		-0.20287278747558593	5.91854443359375	0		
0.00373186993598938	-0.004061366081237793	0		0.48182623291015625	-2.364670654296875	0		-0.9821012573242187	0.016189231872558593	0		-0.7532987670898438	-2.368576904296875	0		1.3746015625	-0.6367454833984375	0		3.303965087890625	-0.17773143005371095	0		4.7363740234375	-0.1500747528076172	0		5.56534375	0.10548255920410156	0		-0.18476718139648438	5.912474609375	0		
0.0021689229011535643	-0.00392644190788269	0		0.4652440185546875	-2.367361572265625	0		-1.055614013671875	0.021139217376708985	0		-0.8277859497070312	-2.3626142578125	0		1.3730423583984375	-0.6366024169921874	0		3.317390625	-0.17874797058105468	0		4.73972021484375	-0.1579683074951172	0		5.5645751953125	0.08764019012451171	0		-0.2053183135986328	5.9168251953125	0		
0.007904345989227296	0.0031059010028839113	0		0.45806402587890627	-2.354178466796875	0		-0.9809744262695312	0.019378713607788086	0		-0.7521309204101563	-2.364384521484375	0		1.3867471923828125	-0.6326521606445312	0		3.3092763671875	-0.1585353546142578	0		4.7424453125	-0.15187092590332033	0		5.5773095703125	0.09462887573242187	0		-0.20767782592773437	5.91894775390625	0		
0.006766740798950195	0.003198447942733765	0		0.48390692138671876	-2.35739013671875	0		-0.9880548095703126	0.024532400131225585	0		-0.7912495727539063	-2.363864501953125	0		1.3766488037109375	-0.6294476928710937	0		3.31896826171875	-0.17354415893554687	0		4.735400390625	-0.14367759704589844	0		5.56538818359375	0.11388426208496094	0		-0.20885659790039063	5.91903857421875	0		
0.0027874488830566405	3.0731201171875E-4	0		0.5058977355957032	-2.364573486328125	0		-0.9930455322265626	0.020645402908325197	0		-0.76025927734375	-2.37115966796875	0		1.3646973876953126	-0.63023779296875	0		3.31617236328125	-0.16042337036132812	0		4.73138818359375	-0.14953378295898437	0		5.57014599609375	0.0879330062866211	0		-0.2098454132080078	5.919111328125	0		
